<?xml version="1.0" encoding="utf-8"?>
<!-- Generator: Adobe Illustrator 21.0.2, SVG Export Plug-In . SVG Version: 6.00 Build 0)  -->
<svg version="1.1" xmlns="http://www.w3.org/2000/svg" xmlns:xlink="http://www.w3.org/1999/xlink" x="0px" y="0px"
	 viewBox="0 0 500 328.3" style="enable-background:new 0 0 500 328.3;" xml:space="preserve">
<style type="text/css">
	.st0{display:none;}
	.st1{display:inline;fill:#80CDE8;stroke:#46C0EC;stroke-miterlimit:10;}
	.st2{fill:#FFFFFF;}
	.st3{fill:none;stroke:#FFFFFF;stroke-miterlimit:10;}
</style>
<g id="Calque_2" class="st0">
	<rect x="-75.8" y="-4.9" class="st1" width="654.2" height="511.9"/>
</g>
<g id="Calque_3" class="st0">
	<rect y="109.4" class="st1" width="100" height="109.4"/>
	<rect x="100" y="109.4" class="st1" width="100" height="109.4"/>
	<rect x="200" y="109.4" class="st1" width="100" height="109.4"/>
	<rect x="300" y="109.4" class="st1" width="100" height="109.4"/>
	<rect x="400" y="109.4" class="st1" width="100" height="109.4"/>
	<rect y="218.7" class="st1" width="100" height="109.4"/>
</g>
<g id="Calque_4" class="st0">
	<rect class="st1" width="100" height="109.4"/>
	<rect x="100" class="st1" width="100" height="109.4"/>
	<rect x="200" class="st1" width="100" height="109.4"/>
	<rect x="300" class="st1" width="100" height="109.4"/>
	<rect x="400" class="st1" width="100" height="109.4"/>
</g>
<g id="Calque_1">
	<g>
		<g>
			<path class="st2" d="M335.8,70.2h-20.1c-8,0-14.6-6.5-14.6-14.6c0-7.7,6-14,13.6-14.5c0.1-9.7,8-17.6,17.8-17.6
				c9.8,0,17.8,8,17.8,17.8c0,0,0,0.1,0,0.1c2.1,0,4.1,0.5,5.9,1.4l-0.2,0.4c-1.9-0.9-3.9-1.3-6-1.3h-0.2l0-0.2c0-0.1,0-0.1,0-0.2
				c0-0.1,0-0.1,0-0.2c0-9.5-7.8-17.3-17.3-17.3s-17.3,7.8-17.3,17.3v0.2l-0.2,0c-7.5,0.3-13.4,6.5-13.4,14
				c0,7.8,6.3,14.1,14.1,14.1h20.1V70.2z"/>
		</g>
		<g>
			<path class="st2" d="M384.5,85.8h-34.4c-8,0-14.6-6.5-14.6-14.6c0-0.4,0-0.8,0.1-1.2l0-0.2h14.5c7.7,0,13.9-6.2,13.9-13.9
				c0-5.3-3.1-10.3-7.9-12.6l-0.4-0.2l0.3-0.2c3.2-2.5,6.9-3.8,11-3.8c9.8,0,17.8,8,17.8,17.8c0,0,0,0.1,0,0.1
				c7.8,0.1,14.1,6.5,14.1,14.4C398.8,79.3,392.4,85.8,384.5,85.8z M336.1,70.2c0,0.3,0,0.7,0,1c0,7.8,6.3,14.1,14.1,14.1h34.4
				c7.7,0,13.9-6.2,13.9-13.9c0-7.7-6.2-13.9-13.9-13.9l-0.3,0l0-0.3c0-0.1,0-0.1,0-0.2c0-0.1,0-0.1,0-0.2c0-9.5-7.8-17.3-17.3-17.3
				c-3.8,0-7.3,1.2-10.3,3.4c4.8,2.4,7.9,7.4,7.9,12.8c0,7.9-6.4,14.4-14.4,14.4H336.1z"/>
		</g>
		<g>
			<path class="st2" d="M350.1,70.2h-14.3v-0.5h14.3c7.7,0,13.9-6.2,13.9-13.9c0-5.3-3.1-10.3-7.9-12.6l0.2-0.4
				c5,2.4,8.2,7.5,8.2,13C364.5,63.8,358,70.2,350.1,70.2z"/>
		</g>
	</g>
	<g>
		<g>
			<path class="st2" d="M470.8,173.4l-0.1-0.5c7.8-0.9,14.4-6.1,17-13.5c-2.8,3.1-6.7,4.9-10.9,4.9c-8.1,0-14.7-6.6-14.7-14.7
				s6.6-14.7,14.7-14.7c0.8,0,1.7,0.1,2.5,0.2c-3.3-2.1-7-3.2-10.9-3.2c-10.7,0-19.7,8.4-20.5,19.1l-0.5,0c0.8-10.9,10-19.5,21-19.5
				c4.4,0,8.6,1.4,12.2,4l1.1,0.8l-1.3-0.3c-1.2-0.3-2.4-0.5-3.6-0.5c-7.8,0-14.2,6.4-14.2,14.2c0,7.8,6.4,14.2,14.2,14.2
				c4.5,0,8.6-2.1,11.3-5.7l0.8-1l-0.4,1.3C486.3,166.6,479.3,172.5,470.8,173.4z"/>
		</g>
		<g>
			<path class="st3" d="M459.9,168.1"/>
		</g>
		<g>
			<path class="st2" d="M459.9,196.6h-34.4c-8,0-14.6-6.5-14.6-14.6c0-7.7,6-14,13.6-14.5c0.1-9.7,8-17.6,17.8-17.6
				c1.8,0,3.6,0.3,5.4,0.8l0.2,0.1l0,0.2c0,0.6-0.1,1-0.1,1.5c0,11.3,9.2,20.5,20.5,20.5c0.8,0,1.5,0,2.3-0.1l0.1,0l0.1,0.1
				c2.2,2.6,3.3,5.9,3.3,9.2C474.3,190.2,467.9,196.6,459.9,196.6z M442.4,150.5c-9.5,0-17.3,7.8-17.3,17.3v0.2l-0.2,0
				c-7.5,0.3-13.4,6.5-13.4,14c0,7.8,6.3,14.1,14.1,14.1h34.4c7.7,0,13.9-6.2,13.9-13.9c0-3.2-1.1-6.3-3.2-8.8
				c-0.8,0.1-1.5,0.1-2.3,0.1c-11.6,0-21-9.4-21-21c0-0.4,0-0.8,0-1.3C445.8,150.7,444.1,150.5,442.4,150.5z"/>
		</g>
		<g>
			<path class="st2" d="M468.4,173.6c-11.6,0-21-9.4-21-21c0-0.5,0-0.9,0.1-1.5l0.5,0c0,0.6-0.1,1-0.1,1.5
				c0,11.3,9.2,20.5,20.5,20.5c0.8,0,1.5,0,2.3-0.1l0.1,0.5C470,173.5,469.2,173.6,468.4,173.6z"/>
		</g>
	</g>
	<g>
		<g>
			<path class="st2" d="M50,69.2c-8.1,0-14.7-6.6-14.7-14.7S41.9,39.8,50,39.8s14.7,6.6,14.7,14.7S58.1,69.2,50,69.2z M50,40.3
				c-7.8,0-14.2,6.4-14.2,14.2S42.2,68.7,50,68.7s14.2-6.4,14.2-14.2S57.8,40.3,50,40.3z"/>
		</g>
		<g>
			<g>
				<path class="st2" d="M50,36.4c-1.1,0-2.1-0.9-2.1-2.1v-7.9c0-1.1,0.9-2.1,2.1-2.1s2.1,0.9,2.1,2.1v7.9
					C52.1,35.4,51.1,36.4,50,36.4z M50,24.8c-0.9,0-1.6,0.7-1.6,1.6v7.9c0,0.9,0.7,1.6,1.6,1.6c0.9,0,1.6-0.7,1.6-1.6v-7.9
					C51.6,25.5,50.9,24.8,50,24.8z"/>
			</g>
		</g>
		<g>
			<g>
				<path class="st2" d="M50,85.1c-1.1,0-2.1-0.9-2.1-2.1v-7.9c0-1.1,0.9-2.1,2.1-2.1s2.1,0.9,2.1,2.1V83
					C52.1,84.1,51.1,85.1,50,85.1z M50,73.5c-0.9,0-1.6,0.7-1.6,1.6V83c0,0.9,0.7,1.6,1.6,1.6c0.9,0,1.6-0.7,1.6-1.6v-7.9
					C51.6,74.2,50.9,73.5,50,73.5z"/>
			</g>
		</g>
		<g>
			<g>
				<path class="st2" d="M78.3,56.8h-7.9c-1.1,0-2.1-0.9-2.1-2.1s0.9-2.1,2.1-2.1h7.9c1.1,0,2.1,0.9,2.1,2.1S79.4,56.8,78.3,56.8z
					 M70.4,53.1c-0.9,0-1.6,0.7-1.6,1.6c0,0.9,0.7,1.6,1.6,1.6h7.9c0.9,0,1.6-0.7,1.6-1.6c0-0.9-0.7-1.6-1.6-1.6H70.4z"/>
			</g>
		</g>
		<g>
			<g>
				<path class="st2" d="M29.6,56.8h-7.9c-1.1,0-2.1-0.9-2.1-2.1s0.9-2.1,2.1-2.1h7.9c1.1,0,2.1,0.9,2.1,2.1S30.8,56.8,29.6,56.8z
					 M21.7,53.1c-0.9,0-1.6,0.7-1.6,1.6c0,0.9,0.7,1.6,1.6,1.6h7.9c0.9,0,1.6-0.7,1.6-1.6c0-0.9-0.7-1.6-1.6-1.6H21.7z"/>
			</g>
		</g>
		<g>
			<g>
				<path class="st2" d="M35.6,42.3c-0.6,0-1.1-0.2-1.5-0.6l-5.6-5.6c-0.4-0.4-0.6-0.9-0.6-1.5c0-0.6,0.2-1.1,0.6-1.5
					c0.8-0.8,2.1-0.8,2.9,0l5.6,5.6c0.4,0.4,0.6,0.9,0.6,1.5c0,0.6-0.2,1.1-0.6,1.5C36.7,42.1,36.1,42.3,35.6,42.3z M30,33.1
					c-0.4,0-0.8,0.2-1.1,0.5c-0.3,0.3-0.5,0.7-0.5,1.1c0,0.4,0.2,0.8,0.5,1.1l5.6,5.6c0.6,0.6,1.6,0.6,2.2,0
					c0.3-0.3,0.5-0.7,0.5-1.1c0-0.4-0.2-0.8-0.5-1.1l-5.6-5.6C30.8,33.2,30.4,33.1,30,33.1z"/>
			</g>
		</g>
		<g>
			<g>
				<path class="st2" d="M70,76.8c-0.6,0-1.1-0.2-1.5-0.6L63,70.6c-0.4-0.4-0.6-0.9-0.6-1.5c0-0.6,0.2-1.1,0.6-1.5
					c0.4-0.4,0.9-0.6,1.5-0.6c0.6,0,1.1,0.2,1.5,0.6l5.6,5.6c0.4,0.4,0.6,0.9,0.6,1.5c0,0.6-0.2,1.1-0.6,1.5
					C71.1,76.6,70.6,76.8,70,76.8z M64.4,67.5c-0.4,0-0.8,0.2-1.1,0.5c-0.3,0.3-0.5,0.7-0.5,1.1s0.2,0.8,0.5,1.1l5.6,5.6
					c0.6,0.6,1.6,0.6,2.2,0c0.3-0.3,0.5-0.7,0.5-1.1s-0.2-0.8-0.5-1.1L65.5,68C65.2,67.7,64.8,67.5,64.4,67.5z"/>
			</g>
		</g>
		<g>
			<g>
				<path class="st2" d="M30,76.8c-0.6,0-1.1-0.2-1.5-0.6c-0.4-0.4-0.6-0.9-0.6-1.5c0-0.6,0.2-1.1,0.6-1.5l5.6-5.6
					c0.4-0.4,0.9-0.6,1.5-0.6c0.6,0,1.1,0.2,1.5,0.6c0.4,0.4,0.6,0.9,0.6,1.5c0,0.6-0.2,1.1-0.6,1.5l-5.6,5.6
					C31.1,76.6,30.5,76.8,30,76.8z M35.6,67.5c-0.4,0-0.8,0.2-1.1,0.5l-5.6,5.6c-0.3,0.3-0.5,0.7-0.5,1.1c0,0.4,0.2,0.8,0.5,1.1
					c0.6,0.6,1.6,0.6,2.2,0l5.6-5.6c0.3-0.3,0.5-0.7,0.5-1.1c0-0.4-0.2-0.8-0.5-1.1C36.4,67.7,36,67.5,35.6,67.5z"/>
			</g>
		</g>
		<g>
			<g>
				<path class="st2" d="M64.4,42.3c-0.6,0-1.1-0.2-1.5-0.6c-0.4-0.4-0.6-0.9-0.6-1.5c0-0.6,0.2-1.1,0.6-1.5l5.6-5.6
					c0.4-0.4,0.9-0.6,1.5-0.6c0.6,0,1.1,0.2,1.5,0.6c0.4,0.4,0.6,0.9,0.6,1.5c0,0.6-0.2,1.1-0.6,1.5l-5.6,5.6
					C65.5,42.1,65,42.3,64.4,42.3z M70,33.1c-0.4,0-0.8,0.2-1.1,0.5l-5.6,5.6c-0.3,0.3-0.5,0.7-0.5,1.1s0.2,0.8,0.5,1.1
					c0.6,0.6,1.6,0.6,2.2,0l5.6-5.6c0.3-0.3,0.5-0.7,0.5-1.1c0-0.4-0.2-0.8-0.5-1.1C70.8,33.3,70.4,33.1,70,33.1z"/>
			</g>
		</g>
	</g>
	<g>
		<g>
			<path class="st2" d="M50.4,302.3c-15.9,0-28.9-12.9-28.9-28.9c0-15.9,12.9-28.9,28.9-28.9c6.1,0,11.9,1.9,16.8,5.4l1.1,0.8
				l-1.3-0.3c-1.7-0.4-3.4-0.7-5-0.7c-10.8,0-19.7,8.8-19.7,19.7c0,10.8,8.8,19.7,19.7,19.7c6.2,0,11.9-2.9,15.7-7.8l0.8-1l-0.4,1.3
				C74.6,293.7,63.2,302.3,50.4,302.3z M50.4,245C34.7,245,22,257.7,22,273.4c0,15.7,12.7,28.4,28.4,28.4c12.1,0,23-7.9,26.9-19.3
				c-3.8,4.5-9.3,7-15.3,7c-11.1,0-20.1-9-20.1-20.1c0-11.1,9-20.1,20.1-20.1c1.3,0,2.6,0.1,3.9,0.4C61.3,246.6,55.9,245,50.4,245z"
				/>
		</g>
		<g>
			<path class="st2" d="M74.1,277.1l-6.8-3.1l-6.8,3.1l0.9-7.4l-5-5.5l7.3-1.5l3.7-6.5l3.7,6.5l7.3,1.5l-5,5.5L74.1,277.1z
				 M57.3,264.5l4.6,5l-0.8,6.8l6.2-2.8l6.2,2.8l-0.8-6.8l4.6-5l-6.7-1.4l-3.4-5.9l-3.4,5.9L57.3,264.5z"/>
		</g>
	</g>
	<g>
		<g>
			<path class="st2" d="M167.3,165.5h-34.4c-8,0-14.6-6.5-14.6-14.6c0-7.7,6-14,13.6-14.5c0.1-9.7,8-17.6,17.8-17.6
				c9.8,0,17.8,8,17.8,17.8c0,0,0,0.1,0,0.1c7.8,0.1,14.1,6.5,14.1,14.4C181.7,159.1,175.2,165.5,167.3,165.5z M149.8,119.4
				c-9.5,0-17.3,7.8-17.3,17.3v0.2l-0.2,0c-7.5,0.3-13.4,6.5-13.4,14c0,7.8,6.3,14.1,14.1,14.1h34.4c7.7,0,13.9-6.2,13.9-13.9
				c0-7.7-6.2-13.9-13.9-13.9l-0.3,0l0-0.3c0-0.1,0-0.1,0-0.2c0-0.1,0-0.1,0-0.2C167,127.1,159.3,119.4,149.8,119.4z"/>
		</g>
		<g>
			<path class="st2" d="M143,209.2l5.6-21.2H135l12.8-23h9.4l-8.8,15.7h17.5L143,209.2z M135.8,187.6h13.4l-5.2,19.6l20.8-25.9
				h-17.3l8.8-15.7h-8.3L135.8,187.6z"/>
		</g>
	</g>
	<g>
		<g>
			<g>
				<path class="st2" d="M137.9,35.1c-0.3,0-0.6-0.1-0.9-0.2c-0.8-0.3-1.2-1.1-1.2-2v-8.5c0-0.9,0.5-1.6,1.2-2
					c0.7-0.3,1.5-0.3,2.1,0.2c0.6,0.4,1,1.1,1,1.8v8.4c0,0.7-0.4,1.4-1,1.8C138.7,34.9,138.3,35.1,137.9,35.1z M137.9,22.8
					c-0.2,0-0.5,0.1-0.7,0.2c-0.6,0.2-0.9,0.8-0.9,1.5v8.5c0,0.7,0.4,1.3,0.9,1.5c0.6,0.2,1.2,0.2,1.7-0.1c0.5-0.3,0.8-0.8,0.8-1.4
					v-8.4c0-0.6-0.3-1.1-0.8-1.4C138.5,22.9,138.2,22.8,137.9,22.8z"/>
			</g>
		</g>
		<g>
			<g>
				<path class="st2" d="M117.9,55.2h-8.4c-0.9,0-1.6-0.5-2-1.2c-0.3-0.7-0.3-1.5,0.2-2.1c0.4-0.6,1.1-1,1.8-1h8.4
					c0.9,0,1.6,0.5,2,1.2c0.3,0.7,0.3,1.5-0.2,2.1C119.3,54.8,118.7,55.2,117.9,55.2z M109.5,51.3c-0.6,0-1.1,0.3-1.4,0.8
					c-0.3,0.5-0.4,1.1-0.1,1.7c0.2,0.6,0.8,0.9,1.5,0.9h8.4c0.6,0,1.1-0.3,1.4-0.8c0.3-0.5,0.4-1.1,0.1-1.7
					c-0.2-0.6-0.9-0.9-1.5-0.9H109.5z"/>
			</g>
		</g>
		<g>
			<g>
				<path class="st2" d="M123.7,40.7c-0.6,0-1.1-0.2-1.5-0.6l-5.6-5.6c-0.4-0.4-0.6-0.9-0.6-1.5c0-0.6,0.2-1.1,0.6-1.5
					c0.4-0.4,0.9-0.6,1.5-0.6c0.6,0,1.1,0.2,1.5,0.6l5.6,5.6c0.4,0.4,0.6,0.9,0.6,1.5c0,0.6-0.2,1.1-0.6,1.5
					C124.7,40.5,124.2,40.7,123.7,40.7z M118.1,31.4c-0.4,0-0.8,0.2-1.1,0.5c-0.3,0.3-0.5,0.7-0.5,1.1c0,0.4,0.2,0.8,0.5,1.1
					l5.6,5.6c0.6,0.6,1.6,0.6,2.2,0c0.3-0.3,0.5-0.7,0.5-1.1c0-0.4-0.2-0.8-0.5-1.1l-5.6-5.6C118.9,31.6,118.5,31.4,118.1,31.4z"/>
			</g>
		</g>
		<g>
			<g>
				<path class="st2" d="M118.1,75.1c-0.6,0-1.1-0.2-1.5-0.6c-0.4-0.4-0.6-0.9-0.6-1.5c0-0.6,0.2-1.1,0.6-1.5l5.6-5.6
					c0.4-0.4,0.9-0.6,1.5-0.6c0.6,0,1.1,0.2,1.5,0.6c0.4,0.4,0.6,0.9,0.6,1.5c0,0.6-0.2,1.1-0.6,1.5l-5.6,5.6
					C119.1,74.9,118.6,75.1,118.1,75.1z M123.7,65.9c-0.4,0-0.8,0.2-1.1,0.5l-5.6,5.6c-0.3,0.3-0.5,0.7-0.5,1.1
					c0,0.4,0.2,0.8,0.5,1.1c0.6,0.6,1.6,0.6,2.2,0l5.6-5.6c0.3-0.3,0.5-0.7,0.5-1.1s-0.2-0.8-0.5-1.1
					C124.5,66,124.1,65.9,123.7,65.9z"/>
			</g>
		</g>
		<g>
			<g>
				<path class="st2" d="M152.5,40.7c-0.6,0-1.1-0.2-1.5-0.6c-0.4-0.4-0.6-0.9-0.6-1.5c0-0.6,0.2-1.1,0.6-1.5l5.6-5.6
					c0.4-0.4,0.9-0.6,1.5-0.6c0.6,0,1.1,0.2,1.5,0.6c0.4,0.4,0.6,0.9,0.6,1.5s-0.2,1.1-0.6,1.5l-5.6,5.6
					C153.6,40.5,153,40.7,152.5,40.7z M158.1,31.4c-0.4,0-0.8,0.2-1.1,0.5l-5.6,5.6c-0.3,0.3-0.5,0.7-0.5,1.1c0,0.4,0.2,0.8,0.5,1.1
					c0.6,0.6,1.6,0.6,2.2,0l5.6-5.6c0.3-0.3,0.5-0.7,0.5-1.1c0-0.4-0.2-0.8-0.5-1.1C158.9,31.6,158.5,31.4,158.1,31.4z"/>
			</g>
		</g>
		<g>
			<path class="st2" d="M131.5,66l-0.2-0.1c-4.9-2.5-7.9-7.5-7.9-13c0-8.1,6.6-14.7,14.7-14.7c4.8,0,9.2,2.3,12,6.2l0.1,0.2
				l-0.2,0.1c-4.1,3.3-6.5,8.2-6.5,13.5v0.2l-0.2,0c-4.9,0.2-9.3,2.9-11.7,7.3L131.5,66z M138.1,38.6c-7.8,0-14.2,6.4-14.2,14.2
				c0,5.2,2.8,10,7.4,12.5c2.5-4.3,6.8-7,11.7-7.3c0.1-5.3,2.4-10.2,6.5-13.6C146.9,40.8,142.6,38.6,138.1,38.6z M143,58.2L143,58.2
				L143,58.2z"/>
		</g>
		<g>
			<path class="st2" d="M178.2,87.1H144c-6.4,0-12.9-5.1-14.3-11.2c-0.8-3.6-0.3-7.2,1.4-10.4l0.4,0.2c-1.7,3.1-2.2,6.5-1.4,10
				c1.3,5.9,7.6,10.8,13.8,10.8h34.2c6.6,0,12.3-4.6,13.7-10.8c0.9-4.2-0.1-8.5-2.8-11.8c-2.7-3.3-6.6-5.2-10.8-5.2H178l0-0.2
				c0-0.1,0-0.1,0-0.2c0-0.1,0-0.1,0-0.2c0-9.5-7.8-17.3-17.3-17.3c-3.9,0-7.7,1.3-10.8,3.8l-0.3-0.4c3.2-2.5,7-3.9,11.1-3.9
				c9.8,0,17.8,8,17.8,17.8c0,0,0,0.1,0,0.1c4.3,0.1,8.3,2,10.9,5.3c2.7,3.4,3.8,7.8,2.9,12.2C190.9,82.4,185,87.1,178.2,87.1z"/>
		</g>
	</g>
	<g>
		<g>
			<path class="st2" d="M67.3,173.9H32.9c-8,0-14.6-6.5-14.6-14.6c0-7.7,6-14,13.6-14.5c0.1-9.7,8-17.6,17.8-17.6
				c9.8,0,17.8,8,17.8,17.8c0,0,0,0.1,0,0.1c7.8,0.1,14.1,6.5,14.1,14.4C81.7,167.5,75.2,173.9,67.3,173.9z M49.8,127.8
				c-9.5,0-17.3,7.8-17.3,17.3v0.2l-0.2,0c-7.5,0.3-13.4,6.5-13.4,14c0,7.8,6.3,14.1,14.1,14.1h34.4c7.7,0,13.9-6.2,13.9-13.9
				c0-7.7-6.2-13.9-13.9-13.9l-0.3,0l0-0.3c0-0.1,0-0.1,0-0.2c0-0.1,0-0.1,0-0.2C67,135.5,59.3,127.8,49.8,127.8z"/>
		</g>
		<g>
			<path class="st2" d="M41.1,200.8c-2.5,0-4.4-1.2-5.7-3.4c-1.4-2.5-1.4-5.6-0.1-8.4l5.8-12.2l5.8,12.2c1.3,2.7,1.3,5.9-0.1,8.4
				C45.6,199.7,43.7,200.8,41.1,200.8z M41.1,178l-5.3,11.3c-1.2,2.6-1.2,5.6,0.1,7.9c1.1,2.1,2.9,3.2,5.2,3.2s4.1-1.1,5.2-3.2
				c1.3-2.4,1.3-5.3,0.1-7.9L41.1,178z"/>
		</g>
		<g>
			<path class="st2" d="M61.3,200.8c-2.5,0-4.4-1.2-5.7-3.4c-1.4-2.5-1.4-5.6-0.1-8.4l5.8-12.2l5.8,12.2c1.3,2.7,1.3,5.9-0.1,8.4
				C65.7,199.7,63.8,200.8,61.3,200.8z M61.3,178L56,189.2c-1.2,2.6-1.2,5.6,0.1,7.9c1.1,2.1,2.9,3.2,5.2,3.2s4.1-1.1,5.2-3.2
				c1.3-2.4,1.3-5.3,0.1-7.9L61.3,178z"/>
		</g>
	</g>
	<g>
		<path class="st2" d="M267.3,78h-34.4c-8,0-14.6-6.5-14.6-14.6c0-7.7,6-14,13.6-14.5c0.1-9.7,8-17.6,17.8-17.6
			c9.8,0,17.8,8,17.8,17.8c0,0,0,0.1,0,0.1c7.8,0.1,14.1,6.5,14.1,14.4C281.7,71.6,275.2,78,267.3,78z M249.8,31.9
			c-9.5,0-17.3,7.8-17.3,17.3v0.2l-0.2,0c-7.5,0.3-13.4,6.5-13.4,14c0,7.8,6.3,14.1,14.1,14.1h34.4c7.7,0,13.9-6.2,13.9-13.9
			c0-7.7-6.2-13.9-13.9-13.9l-0.3,0l0-0.3c0-0.1,0-0.1,0-0.2c0-0.1,0-0.1,0-0.2C267,39.6,259.3,31.9,249.8,31.9z"/>
	</g>
	<g>
		<g>
			<g>
				<path class="st2" d="M437.9,21.8c-0.3,0-0.6-0.1-0.9-0.2c-0.8-0.3-1.2-1.1-1.2-2v-8.5c0-0.9,0.5-1.6,1.2-2
					c0.7-0.3,1.5-0.3,2.1,0.2c0.6,0.4,1,1.1,1,1.8v8.4c0,0.7-0.4,1.4-1,1.8C438.7,21.6,438.3,21.8,437.9,21.8z M437.9,9.5
					c-0.2,0-0.5,0.1-0.7,0.2c-0.6,0.2-0.9,0.8-0.9,1.5v8.5c0,0.7,0.4,1.3,0.9,1.5c0.6,0.2,1.2,0.2,1.7-0.1c0.5-0.3,0.8-0.8,0.8-1.4
					v-8.4c0-0.6-0.3-1.1-0.8-1.4C438.5,9.6,438.2,9.5,437.9,9.5z"/>
			</g>
		</g>
		<g>
			<g>
				<path class="st2" d="M417.9,41.8h-8.4c-0.9,0-1.6-0.5-2-1.2c-0.3-0.7-0.3-1.5,0.2-2.1c0.4-0.6,1.1-1,1.8-1h8.4
					c0.9,0,1.6,0.5,2,1.2c0.3,0.7,0.3,1.5-0.2,2.1C419.3,41.5,418.7,41.8,417.9,41.8z M409.5,38c-0.6,0-1.1,0.3-1.4,0.8
					c-0.3,0.5-0.4,1.1-0.1,1.7c0.2,0.6,0.9,0.9,1.5,0.9h8.4c0.6,0,1.1-0.3,1.4-0.8c0.3-0.5,0.4-1.1,0.1-1.7
					c-0.2-0.6-0.9-0.9-1.5-0.9H409.5z"/>
			</g>
		</g>
		<g>
			<g>
				<path class="st2" d="M423.7,27.4c-0.6,0-1.1-0.2-1.5-0.6l-5.6-5.6c-0.4-0.4-0.6-0.9-0.6-1.5c0-0.6,0.2-1.1,0.6-1.5
					c0.8-0.8,2.1-0.8,2.9,0l5.6,5.6c0.4,0.4,0.6,0.9,0.6,1.5c0,0.6-0.2,1.1-0.6,1.5C424.7,27.2,424.2,27.4,423.7,27.4z M418.1,18.1
					c-0.4,0-0.8,0.2-1.1,0.5c-0.3,0.3-0.5,0.7-0.5,1.1c0,0.4,0.2,0.8,0.5,1.1l5.6,5.6c0.6,0.6,1.6,0.6,2.2,0
					c0.3-0.3,0.5-0.7,0.5-1.1c0-0.4-0.2-0.8-0.5-1.1l-5.6-5.6C418.9,18.3,418.5,18.1,418.1,18.1z"/>
			</g>
		</g>
		<g>
			<g>
				<path class="st2" d="M418.1,61.8c-0.6,0-1.1-0.2-1.5-0.6c-0.4-0.4-0.6-0.9-0.6-1.5c0-0.6,0.2-1.1,0.6-1.5l5.6-5.6
					c0.8-0.8,2.1-0.8,2.9,0c0.4,0.4,0.6,0.9,0.6,1.5c0,0.6-0.2,1.1-0.6,1.5l-5.6,5.6C419.1,61.6,418.6,61.8,418.1,61.8z M423.7,52.6
					c-0.4,0-0.8,0.2-1.1,0.5l-5.6,5.6c-0.3,0.3-0.5,0.7-0.5,1.1c0,0.4,0.2,0.8,0.5,1.1c0.6,0.6,1.6,0.6,2.2,0l5.6-5.6
					c0.3-0.3,0.5-0.7,0.5-1.1c0-0.4-0.2-0.8-0.5-1.1C424.5,52.7,424.1,52.6,423.7,52.6z"/>
			</g>
		</g>
		<g>
			<g>
				<path class="st2" d="M452.5,27.4c-0.6,0-1.1-0.2-1.5-0.6c-0.4-0.4-0.6-0.9-0.6-1.5s0.2-1.1,0.6-1.5l5.6-5.6
					c0.4-0.4,0.9-0.6,1.5-0.6c0.6,0,1.1,0.2,1.5,0.6c0.4,0.4,0.6,0.9,0.6,1.5s-0.2,1.1-0.6,1.5l-5.6,5.6
					C453.6,27.2,453,27.4,452.5,27.4z M458.1,18.1c-0.4,0-0.8,0.2-1.1,0.5l-5.6,5.6c-0.3,0.3-0.5,0.7-0.5,1.1c0,0.4,0.2,0.8,0.5,1.1
					c0.6,0.6,1.6,0.6,2.2,0l5.6-5.6c0.3-0.3,0.5-0.7,0.5-1.1s-0.2-0.8-0.5-1.1C458.9,18.3,458.5,18.1,458.1,18.1z"/>
			</g>
		</g>
		<g>
			<path class="st2" d="M431.5,52.6l-0.2-0.1c-4.9-2.5-7.9-7.5-7.9-13c0-8.1,6.6-14.7,14.7-14.7c4.8,0,9.2,2.3,12,6.2l0.1,0.2
				l-0.2,0.1c-4.1,3.3-6.5,8.2-6.5,13.5v0.2l-0.2,0c-4.9,0.2-9.3,2.9-11.7,7.3L431.5,52.6z M438.1,25.3c-7.8,0-14.2,6.4-14.2,14.2
				c0,5.2,2.8,10,7.4,12.5c2.5-4.3,6.8-7,11.7-7.3c0.1-5.3,2.4-10.2,6.5-13.6C446.9,27.5,442.6,25.3,438.1,25.3z M443,44.9L443,44.9
				L443,44.9z"/>
		</g>
		<g>
			<path class="st2" d="M478.2,73.8H444c-6.4,0-12.9-5.1-14.3-11.2c-0.8-3.6-0.3-7.2,1.4-10.4l0.4,0.2c-1.7,3.1-2.2,6.5-1.4,10
				c1.3,5.9,7.6,10.8,13.8,10.8h34.2c6.6,0,12.3-4.6,13.7-10.8c0.9-4.2-0.1-8.5-2.8-11.8c-2.7-3.3-6.6-5.2-10.8-5.2H478l0-0.2
				c0-0.1,0-0.1,0-0.2c0-0.1,0-0.1,0-0.2c0-9.5-7.8-17.3-17.3-17.3c-3.9,0-7.7,1.3-10.8,3.8l-0.3-0.4c3.2-2.5,7-3.9,11.1-3.9
				c9.8,0,17.8,8,17.8,17.8c0,0,0,0.1,0,0.1c4.3,0.1,8.3,2,10.9,5.3c2.7,3.4,3.8,7.8,2.9,12.2C490.9,69,485,73.8,478.2,73.8z"/>
		</g>
		<g>
			<path class="st2" d="M466.6,100.4c-2.5,0-4.4-1.2-5.7-3.4c-1.4-2.5-1.4-5.6-0.1-8.4l5.8-12.2l5.8,12.2c1.3,2.7,1.3,5.9-0.1,8.4
				C471.1,99.2,469.1,100.4,466.6,100.4z M466.6,77.5l-5.3,11.3c-1.2,2.6-1.2,5.6,0.1,7.9c1.1,2.1,2.9,3.2,5.2,3.2
				c2.3,0,4.1-1.1,5.2-3.2c1.3-2.4,1.3-5.3,0.1-7.9L466.6,77.5z"/>
		</g>
	</g>
	<g>
		<g>
			<rect x="253" y="145.1" class="st2" width="0.5" height="12.5"/>
		</g>
		<g>
			<rect x="246.5" y="145.1" class="st2" width="0.5" height="12.5"/>
		</g>
		<g>
			<path class="st2" d="M253.5,135.8H253v-6.7c0-1.1-0.9-2-2-2h-2.1c-1.1,0-2,0.9-2,2v6.7h-0.5v-6.7c0-1.4,1.1-2.5,2.5-2.5h2.1
				c1.4,0,2.5,1.1,2.5,2.5V135.8z"/>
		</g>
		<g>
			<path class="st2" d="M251.1,201.4h-2.1c-1.4,0-2.5-1.1-2.5-2.5v-6.7h0.5v6.7c0,1.1,0.9,2,2,2h2.1c1.1,0,2-0.9,2-2v-6.7h0.5v6.7
				C253.5,200.3,252.4,201.4,251.1,201.4z"/>
		</g>
		<g>
			<rect x="253" y="170.5" class="st2" width="0.5" height="12.5"/>
		</g>
		<g>
			<rect x="246.5" y="170.5" class="st2" width="0.5" height="12.5"/>
		</g>
		<g>
			<path class="st2" d="M247,145.3h-0.5v-0.1l-9.6-9.6c-0.5-0.5-0.7-1.1-0.7-1.7c0-0.7,0.3-1.3,0.7-1.7l1.5-1.5c1-1,2.5-1,3.5,0l5,5
				l0,0h0.1v0.7l-5.4-5.4c-0.8-0.8-2-0.8-2.8,0l-1.5,1.5c-0.4,0.4-0.6,0.9-0.6,1.4c0,0.5,0.2,1,0.6,1.4l9.7,9.7V145.3z"/>
		</g>
		<g>
			<path class="st2" d="M253.5,145.3H253V145l9.7-9.7c0.8-0.8,0.8-2,0-2.8l-1.5-1.5c-0.4-0.4-0.9-0.6-1.4-0.6h0
				c-0.5,0-1,0.2-1.4,0.6l-5.4,5.4v-0.7h0.1l-0.1-0.1l5-5c0.5-0.5,1.1-0.7,1.7-0.7h0c0.7,0,1.3,0.3,1.7,0.7l1.5,1.5c1,1,1,2.5,0,3.5
				l-9.6,9.6V145.3z"/>
		</g>
		<g>
			<path class="st2" d="M240.2,198.2c-0.7,0-1.3-0.3-1.7-0.7l-1.5-1.5c-1-1-1-2.5,0-3.5l9.6-9.6v-0.3h0.5v0.5l-9.7,9.7
				c-0.8,0.8-0.8,2,0,2.8l1.5,1.5c0.4,0.4,0.9,0.6,1.4,0.6c0,0,0,0,0,0c0.5,0,1-0.2,1.4-0.6l5.4-5.4v0.9h-0.2l-4.8,4.8
				C241.4,197.9,240.8,198.2,240.2,198.2L240.2,198.2z"/>
		</g>
		<g>
			<path class="st2" d="M259.8,198.2c-0.6,0-1.3-0.2-1.7-0.7l-4.7-4.7H253v-1.1l5.4,5.4c0.8,0.8,2,0.8,2.8,0l1.5-1.5
				c0.4-0.4,0.6-0.9,0.6-1.4c0-0.5-0.2-1-0.6-1.4l-9.7-9.7v-0.4h0.5v0.2l9.6,9.6c0.5,0.5,0.7,1.1,0.7,1.7c0,0.7-0.3,1.3-0.7,1.7
				l-1.5,1.5C261.1,197.9,260.5,198.2,259.8,198.2z"/>
		</g>
		<g>
			<rect x="256.4" y="167.1" class="st2" width="12.5" height="0.5"/>
		</g>
		<g>
			<rect x="256.4" y="160.5" class="st2" width="12.5" height="0.5"/>
		</g>
		<g>
			<path class="st2" d="M221.8,167.6h-6.7c-1.4,0-2.5-1.1-2.5-2.5V163c0-1.4,1.1-2.5,2.5-2.5h6.7v0.5h-6.7c-1.1,0-2,0.9-2,2v2.1
				c0,1.1,0.9,2,2,2h6.7V167.6z"/>
		</g>
		<g>
			<path class="st3" d="M234.2,164.1"/>
		</g>
		<g>
			<rect x="231.1" y="160.5" class="st2" width="12.5" height="0.5"/>
		</g>
		<g>
			<rect x="231" y="167.1" class="st2" width="12.5" height="0.5"/>
		</g>
		<g>
			<path class="st2" d="M284.9,167.6h-6.7v-0.5h6.7c1.1,0,2-0.9,2-2V163c0-1.1-0.9-2-2-2h-6.7v-0.5h6.7c1.4,0,2.5,1.1,2.5,2.5v2.1
				C287.3,166.5,286.2,167.6,284.9,167.6z"/>
		</g>
		<g>
			<path class="st2" d="M280.1,177.9c-0.7,0-1.3-0.3-1.7-0.7l-9.6-9.6h-0.2v-0.5h0.4l9.7,9.7c0.4,0.4,0.9,0.6,1.4,0.6l0,0
				c0.5,0,1-0.2,1.4-0.6l1.5-1.5c0.4-0.4,0.6-0.9,0.6-1.4c0-0.5-0.2-1-0.6-1.4l-5.4-5.4h1.2l0,0.5l4.6,4.6c0.5,0.5,0.7,1.1,0.7,1.7
				c0,0.7-0.3,1.3-0.7,1.7l-1.5,1.5C281.4,177.6,280.8,177.9,280.1,177.9C280.1,177.9,280.1,177.9,280.1,177.9z"/>
		</g>
		<g>
			<path class="st2" d="M278.6,161h-1l5.4-5.4c0.8-0.8,0.8-2,0-2.8l-1.5-1.5c-0.4-0.4-0.9-0.6-1.4-0.6h0c-0.5,0-1,0.2-1.4,0.6
				l-9.7,9.7h-0.4v-0.5h0.2l9.6-9.6c0.5-0.5,1.1-0.7,1.7-0.7h0c0.7,0,1.3,0.3,1.7,0.7l1.5,1.5c1,1,1,2.5,0,3.5l-4.7,4.7V161z"/>
		</g>
		<g>
			<path class="st2" d="M219.9,177.9C219.9,177.9,219.9,177.9,219.9,177.9c-0.7,0-1.3-0.3-1.7-0.7l-1.5-1.5c-1-1-1-2.5,0-3.5
				l4.8-4.8v-0.3h0.9l-5.4,5.4c-0.8,0.8-0.8,2,0,2.8l1.5,1.5c0.4,0.4,0.9,0.6,1.4,0.6c0,0,0,0,0,0c0.5,0,1-0.2,1.4-0.6l9.7-9.7h0.4
				v0.5h-0.2l-9.6,9.6C221.1,177.6,220.5,177.9,219.9,177.9z"/>
		</g>
		<g>
			<path class="st2" d="M231.6,161H231l-9.7-9.7c-0.8-0.8-2-0.8-2.8,0l-1.5,1.5c-0.4,0.4-0.6,0.9-0.6,1.4s0.2,1,0.6,1.4l5.4,5.4
				h-1.2v-0.5h0l-4.6-4.6c-0.5-0.5-0.7-1.1-0.7-1.7c0-0.7,0.3-1.3,0.7-1.7l1.5-1.5c1-1,2.5-1,3.5,0l9.6,9.6h0.4V161z"/>
		</g>
		<g>
			<path class="st2" d="M233.8,182.7c-0.7,0-1.3-0.3-1.7-0.7c-0.5-0.5-0.7-1.1-0.7-1.7c0-0.7,0.3-1.3,0.7-1.7l2.7-2.7l0.3,0.3
				l-2.7,2.7c-0.4,0.4-0.6,0.9-0.6,1.4c0,0.5,0.2,1,0.6,1.4c0.4,0.4,0.9,0.6,1.4,0.6c0.5,0,1-0.2,1.4-0.6l2.7-2.7l0.3,0.3l-2.7,2.7
				C235.1,182.4,234.5,182.7,233.8,182.7z"/>
		</g>
		<g>
			<polygon class="st2" points="256.8,161 255.8,161 260.4,156.4 260.8,156.8 256.8,160.8 			"/>
		</g>
		<g>
			<polygon class="st2" points="253,158.2 253,157.3 253.3,157.3 257.3,153.3 257.7,153.6 			"/>
		</g>
		<g>
			<path class="st3" d="M257.5,156.5"/>
		</g>
		<g>
			<polygon class="st2" points="239.6,171.7 239.2,171.4 243.4,167.2 243.4,167.1 244.2,167.1 			"/>
		</g>
		<g>
			<polygon class="st2" points="242.7,174.9 242.3,174.5 247,169.9 247,170.8 246.7,170.8 			"/>
		</g>
		<g>
			<path class="st3" d="M242.5,171.6"/>
		</g>
		<g>
			<path class="st2" d="M265.2,152.3l-0.3-0.3l2.7-2.7c0.4-0.4,0.6-0.9,0.6-1.4s-0.2-1-0.6-1.4c-0.8-0.8-2-0.8-2.8,0l-2.7,2.7
				l-0.3-0.3l2.7-2.7c1-1,2.5-1,3.5,0c0.5,0.5,0.7,1.1,0.7,1.7s-0.3,1.3-0.7,1.7L265.2,152.3z"/>
		</g>
		<g>
			<path class="st2" d="M260.5,157l-0.3-0.3l0.3-0.3l8.6,0c1.1,0,2-0.9,2-2c0-0.5-0.2-1-0.6-1.4c-0.4-0.4-0.9-0.6-1.4-0.6
				c0,0,0,0,0,0l-4.6,0l0.6-0.6l0.1,0.1l3.9,0c0,0,0,0,0,0c0.7,0,1.3,0.3,1.7,0.7c0.5,0.5,0.7,1.1,0.7,1.7c0,1.4-1.1,2.5-2.5,2.5
				l-8.4,0L260.5,157z"/>
		</g>
		<g>
			<path class="st2" d="M257.5,153.8l-0.3-0.3l0.1-0.1V145c0-0.7,0.3-1.3,0.7-1.7c0.5-0.5,1.1-0.7,1.7-0.7c0,0,0,0,0,0
				c1.4,0,2.5,1.1,2.5,2.5v3.9l0.1,0.1l-0.6,0.6V145c0-1.1-0.9-2-2-2c0,0,0,0,0,0c-0.5,0-1,0.2-1.4,0.6c-0.4,0.4-0.6,0.9-0.6,1.4
				v8.6L257.5,153.8z"/>
		</g>
		<g>
			<path class="st2" d="M234.9,176.3l-0.1-0.1l-3.9,0c0,0,0,0,0,0c-0.7,0-1.3-0.3-1.7-0.7s-0.7-1.1-0.7-1.7c0-1.4,1.1-2.5,2.5-2.5
				l8.4,0l0.1-0.1l0.3,0.3l-0.2,0.2l-8.6,0c-1.1,0-2,0.9-2,2c0,0.5,0.2,1,0.6,1.4c0.4,0.4,0.9,0.6,1.4,0.6c0,0,0,0,0,0l4.6,0
				L234.9,176.3z"/>
		</g>
		<g>
			<path class="st2" d="M240.3,185.6C240.3,185.6,240.3,185.6,240.3,185.6c-1.4,0-2.5-1.1-2.5-2.5v-3.6l-0.3-0.3l0.7-0.7v4.6
				c0,1.1,0.9,2,2,2c0,0,0,0,0,0c0.5,0,1-0.2,1.4-0.6c0.4-0.4,0.6-0.9,0.6-1.4v-8.6l0.3-0.3l0.3,0.3l-0.2,0.2v8.4
				c0,0.7-0.3,1.3-0.7,1.7C241.6,185.4,241,185.6,240.3,185.6z"/>
		</g>
		<g>
			<polygon class="st2" points="244.2,161 243.3,161 243.3,160.8 239.2,156.7 239.5,156.4 			"/>
		</g>
		<g>
			<polygon class="st2" points="247,158.2 242.3,153.6 242.7,153.3 246.6,157.2 247,157.2 			"/>
		</g>
		<g>
			<path class="st2" d="M266.2,182.7c-0.6,0-1.3-0.2-1.7-0.7l-2.7-2.7l0.3-0.3l2.7,2.7c0.8,0.8,2,0.8,2.8,0c0.4-0.4,0.6-0.9,0.6-1.4
				c0-0.5-0.2-1-0.6-1.4l-2.7-2.7l0.3-0.3l2.7,2.7c0.5,0.5,0.7,1.1,0.7,1.7c0,0.7-0.3,1.3-0.7,1.7
				C267.4,182.4,266.8,182.7,266.2,182.7z"/>
		</g>
		<g>
			<path class="st2" d="M234.8,152.3l-2.7-2.7c-0.5-0.5-0.7-1.1-0.7-1.7s0.3-1.3,0.7-1.7c0.5-0.5,1.1-0.7,1.7-0.7
				c0.7,0,1.3,0.3,1.7,0.7l2.7,2.7l-0.3,0.3l-2.7-2.7c-0.7-0.7-2-0.7-2.8,0c-0.4,0.4-0.6,0.9-0.6,1.4s0.2,1,0.6,1.4l2.7,2.7
				L234.8,152.3z"/>
		</g>
		<g>
			<polygon class="st2" points="257.3,174.9 253.3,170.8 253,170.8 253,169.9 257.7,174.5 			"/>
		</g>
		<g>
			<polygon class="st2" points="260.5,171.7 255.8,167.1 256.7,167.1 256.7,167.3 260.8,171.4 			"/>
		</g>
		<g>
			<path class="st2" d="M265.1,176.4l-0.6-0.6h4.6c1.1,0,2-0.9,2-2c0-0.5-0.2-1-0.6-1.4c-0.4-0.4-0.9-0.6-1.4-0.6h-8.6l-0.3-0.3
				l0.3-0.3l0.1,0.1h8.4c0.7,0,1.3,0.3,1.7,0.7c0.5,0.5,0.7,1.1,0.7,1.7c0,1.4-1.1,2.5-2.5,2.5h-3.9L265.1,176.4z"/>
		</g>
		<g>
			<path class="st2" d="M259.7,185.6c-1.4,0-2.5-1.1-2.5-2.5l0-8.5h0.1l0.2-0.2l0.1,0.1l0,8.6c0,1.1,0.9,2,2,2c0.5,0,1-0.2,1.4-0.6
				c0.4-0.4,0.6-0.9,0.6-1.4l0-4.6l0.7,0.7l-0.2,0.2l0,3.7c0,0.7-0.3,1.3-0.7,1.7C261,185.4,260.4,185.6,259.7,185.6z"/>
		</g>
		<g>
			<path class="st2" d="M239.5,157l-0.2-0.2h-8.4c-0.7,0-1.3-0.3-1.7-0.7s-0.7-1.1-0.7-1.7c0-1.4,1.1-2.5,2.5-2.5h3.8l0.2-0.2
				l0.7,0.7h-4.6c-1.1,0-2,0.9-2,2c0,0.5,0.2,1,0.6,1.4c0.4,0.4,0.9,0.6,1.4,0.6h8.6l0.3,0.3L239.5,157z"/>
		</g>
		<g>
			<path class="st2" d="M242.4,153.7l-0.1-0.1l0-8.6c0-1.1-0.9-2-2-2c-0.5,0-1,0.2-1.4,0.6c-0.4,0.4-0.6,0.9-0.6,1.4l0,4.6l-0.6-0.6
				l0.1-0.1l0-3.9c0-0.7,0.3-1.3,0.7-1.7c0.5-0.5,1.1-0.7,1.7-0.7c1.4,0,2.5,1.1,2.5,2.5l0,8.5h-0.1L242.4,153.7z"/>
		</g>
	</g>
	<g>
		<g>
			<path class="st2" d="M380,157.1h-15.7v-0.5H380c1,0,1.9-0.8,1.9-1.9c0-1-0.8-1.9-1.9-1.9h-16.6v-0.5H380c1.3,0,2.4,1.1,2.4,2.4
				C382.4,156.1,381.3,157.1,380,157.1z"/>
		</g>
		<g>
			<path class="st2" d="M329.4,157.1h-16.8c-1.3,0-2.4-1.1-2.4-2.4c0-1.3,1.1-2.4,2.4-2.4h17.8v0.5h-17.8c-1,0-1.9,0.8-1.9,1.9
				c0,1,0.8,1.9,1.9,1.9h16.8V157.1z"/>
		</g>
		<g>
			<path class="st2" d="M363.7,152.9H330l0.1-0.3c2.5-7.1,9.2-11.8,16.7-11.8c7.5,0,14.2,4.7,16.7,11.8L363.7,152.9z M330.7,152.4
				H363c-2.5-6.7-9-11.2-16.2-11.2C339.7,141.2,333.2,145.7,330.7,152.4z"/>
		</g>
		<g>
			<path class="st2" d="M364.4,187.4H330c-7,0-13-5-14.3-11.8l-0.1-0.3h56.1c1,0,1.9-0.8,1.9-1.9c0-1-0.8-1.9-1.9-1.9h-56.3l0-0.3
				c0.8-7.1,6.5-12.4,13.6-12.9c0-0.5,0-0.9,0.1-1.4l0-0.2h35.3l0,0.2c0.1,0.6,0.1,1.1,0.1,1.6c0,0,0,0.1,0,0.1
				c3.2,0.1,6.2,1.1,8.7,3.1l0.5,0.4h-48c-1,0-1.9,0.8-1.9,1.9c0,1,0.8,1.9,1.9,1.9h51.1l0.1,0.1c1.2,2.1,1.8,4.5,1.8,6.9
				c0,2.2-0.5,4.3-1.4,6.3l-0.1,0.1h-49.1c-1,0-1.9,0.8-1.9,1.9c0,1,0.8,1.9,1.9,1.9h46.3l-0.5,0.4C371.4,186,368,187.4,364.4,187.4
				z M316.2,175.7c1.4,6.5,7.1,11.2,13.8,11.2h34.4c3.3,0,6.4-1.1,8.9-3.2h-45.1c-1.3,0-2.4-1.1-2.4-2.4c0-1.3,1.1-2.4,2.4-2.4H377
				c0.9-1.9,1.3-3.8,1.3-5.9c0-2.3-0.6-4.6-1.7-6.6h-50.8c-1.3,0-2.4-1.1-2.4-2.4c0-1.3,1.1-2.4,2.4-2.4h46.6
				c-2.4-1.7-5.1-2.6-8-2.6h-0.2l0-0.2c0-0.1,0-0.1,0-0.2c0-0.1,0-0.1,0-0.2c0-0.4,0-0.9-0.1-1.4h-34.5c0,0.5-0.1,0.9-0.1,1.4v0.2
				l-0.2,0c-6.9,0.3-12.4,5.4-13.3,12.2h55.7c1.3,0,2.4,1.1,2.4,2.4c0,1.3-1.1,2.4-2.4,2.4H316.2z"/>
		</g>
		<g>
			<path class="st2" d="M393.2,166.4h-16.4V166h16.4c1,0,1.9-0.8,1.9-1.9c0-1-0.8-1.9-1.9-1.9h-20v-0.5h20c1.3,0,2.4,1.1,2.4,2.4
				C395.6,165.4,394.5,166.4,393.2,166.4z"/>
		</g>
		<g>
			<path class="st2" d="M315.9,175.7h-11.5c-1.3,0-2.4-1.1-2.4-2.4c0-1.3,1.1-2.4,2.4-2.4h11.4v0.5h-11.4c-1,0-1.9,0.8-1.9,1.9
				c0,1,0.8,1.9,1.9,1.9h11.5V175.7z"/>
		</g>
		<g>
			<path class="st2" d="M395.6,183.7h-21.7v-0.5h21.7c1,0,1.9-0.8,1.9-1.9c0-1-0.8-1.9-1.9-1.9h-18.5v-0.5h18.5
				c1.3,0,2.4,1.1,2.4,2.4C398,182.6,396.9,183.7,395.6,183.7z"/>
		</g>
	</g>
</g>
</svg>
