<svg xmlns="http://www.w3.org/2000/svg" viewBox="0 0 500 328.3"><style>.st0{display:none}.st1{display:inline;fill:#80cde8;stroke:#46c0ec;stroke-miterlimit:10}.st2{fill:#fff}.st3{fill:none;stroke:#fff;stroke-miterlimit:10}</style><g id="Calque_2" class="st0"><path class="st1" d="M-75.8-4.9h654.2V507H-75.8z"/></g><g id="Calque_3" class="st0"><path class="st1" d="M0 109.4h100v109.4H0zm100 0h100v109.4H100zm100 0h100v109.4H200zm100 0h100v109.4H300zm100 0h100v109.4H400z"/><path class="st1" d="M0 218.7h100v109.4H0z"/></g><g id="Calque_4" class="st0"><path class="st1" d="M0 0h100v109.4H0zm100 0h100v109.4H100zm100 0h100v109.4H200zm100 0h100v109.4H300zm100 0h100v109.4H400z"/></g><g id="Calque_1"><path class="st2" d="M335.8 70.2h-20.1c-8 0-14.6-6.5-14.6-14.6 0-7.7 6-14 13.6-14.5.1-9.7 8-17.6 17.8-17.6s17.8 8 17.8 17.8v.1c2.1 0 4.1.5 5.9 1.4l-.2.4c-1.9-.9-3.9-1.3-6-1.3h-.2v-.6c0-9.5-7.8-17.3-17.3-17.3s-17.3 7.8-17.3 17.3v.2h-.2c-7.5.3-13.4 6.5-13.4 14 0 7.8 6.3 14.1 14.1 14.1h20.1v.6z"/><path class="st2" d="M384.5 85.8h-34.4c-8 0-14.6-6.5-14.6-14.6 0-.4 0-.8.1-1.2v-.2h14.5c7.7 0 13.9-6.2 13.9-13.9 0-5.3-3.1-10.3-7.9-12.6l-.4-.2.3-.2c3.2-2.5 6.9-3.8 11-3.8 9.8 0 17.8 8 17.8 17.8v.1c7.8.1 14.1 6.5 14.1 14.4-.1 7.9-6.5 14.4-14.4 14.4zm-48.4-15.6v1c0 7.8 6.3 14.1 14.1 14.1h34.4c7.7 0 13.9-6.2 13.9-13.9s-6.2-13.9-13.9-13.9h-.3v-.7c0-9.5-7.8-17.3-17.3-17.3-3.8 0-7.3 1.2-10.3 3.4 4.8 2.4 7.9 7.4 7.9 12.8 0 7.9-6.4 14.4-14.4 14.4h-14.1z"/><path class="st2" d="M350.1 70.2h-14.3v-.5h14.3c7.7 0 13.9-6.2 13.9-13.9 0-5.3-3.1-10.3-7.9-12.6l.2-.4c5 2.4 8.2 7.5 8.2 13 0 8-6.5 14.4-14.4 14.4zm120.7 103.2l-.1-.5c7.8-.9 14.4-6.1 17-13.5-2.8 3.1-6.7 4.9-10.9 4.9-8.1 0-14.7-6.6-14.7-14.7s6.6-14.7 14.7-14.7c.8 0 1.7.1 2.5.2-3.3-2.1-7-3.2-10.9-3.2-10.7 0-19.7 8.4-20.5 19.1h-.5c.8-10.9 10-19.5 21-19.5 4.4 0 8.6 1.4 12.2 4l1.1.8-1.3-.3c-1.2-.3-2.4-.5-3.6-.5-7.8 0-14.2 6.4-14.2 14.2 0 7.8 6.4 14.2 14.2 14.2 4.5 0 8.6-2.1 11.3-5.7l.8-1-.4 1.3c-2.2 8.1-9.2 14-17.7 14.9z"/><path class="st2" d="M459.9 196.6h-34.4c-8 0-14.6-6.5-14.6-14.6 0-7.7 6-14 13.6-14.5.1-9.7 8-17.6 17.8-17.6 1.8 0 3.6.3 5.4.8l.2.1v.2c0 .6-.1 1-.1 1.5 0 11.3 9.2 20.5 20.5 20.5.8 0 1.5 0 2.3-.1h.1l.1.1c2.2 2.6 3.3 5.9 3.3 9.2.2 8-6.2 14.4-14.2 14.4zm-17.5-46.1c-9.5 0-17.3 7.8-17.3 17.3v.2h-.2c-7.5.3-13.4 6.5-13.4 14 0 7.8 6.3 14.1 14.1 14.1H460c7.7 0 13.9-6.2 13.9-13.9 0-3.2-1.1-6.3-3.2-8.8-.8.1-1.5.1-2.3.1-11.6 0-21-9.4-21-21v-1.3c-1.6-.5-3.3-.7-5-.7z"/><path class="st2" d="M468.4 173.6c-11.6 0-21-9.4-21-21 0-.5 0-.9.1-1.5h.5c0 .6-.1 1-.1 1.5 0 11.3 9.2 20.5 20.5 20.5.8 0 1.5 0 2.3-.1l.1.5c-.8 0-1.6.1-2.4.1zM50 69.2c-8.1 0-14.7-6.6-14.7-14.7S41.9 39.8 50 39.8s14.7 6.6 14.7 14.7S58.1 69.2 50 69.2zm0-28.9c-7.8 0-14.2 6.4-14.2 14.2S42.2 68.7 50 68.7s14.2-6.4 14.2-14.2S57.8 40.3 50 40.3zm0-3.9c-1.1 0-2.1-.9-2.1-2.1v-7.9c0-1.1.9-2.1 2.1-2.1s2.1.9 2.1 2.1v7.9c0 1.1-1 2.1-2.1 2.1zm0-11.6c-.9 0-1.6.7-1.6 1.6v7.9c0 .9.7 1.6 1.6 1.6.9 0 1.6-.7 1.6-1.6v-7.9c0-.9-.7-1.6-1.6-1.6zm0 60.3c-1.1 0-2.1-.9-2.1-2.1v-7.9c0-1.1.9-2.1 2.1-2.1s2.1.9 2.1 2.1V83c0 1.1-1 2.1-2.1 2.1zm0-11.6c-.9 0-1.6.7-1.6 1.6V83c0 .9.7 1.6 1.6 1.6.9 0 1.6-.7 1.6-1.6v-7.9c0-.9-.7-1.6-1.6-1.6zm28.3-16.7h-7.9c-1.1 0-2.1-.9-2.1-2.1s.9-2.1 2.1-2.1h7.9c1.1 0 2.1.9 2.1 2.1s-1 2.1-2.1 2.1zm-7.9-3.7c-.9 0-1.6.7-1.6 1.6 0 .9.7 1.6 1.6 1.6h7.9c.9 0 1.6-.7 1.6-1.6 0-.9-.7-1.6-1.6-1.6h-7.9zm-40.8 3.7h-7.9c-1.1 0-2.1-.9-2.1-2.1s.9-2.1 2.1-2.1h7.9c1.1 0 2.1.9 2.1 2.1s-.9 2.1-2.1 2.1zm-7.9-3.7c-.9 0-1.6.7-1.6 1.6 0 .9.7 1.6 1.6 1.6h7.9c.9 0 1.6-.7 1.6-1.6 0-.9-.7-1.6-1.6-1.6h-7.9zm13.9-10.8c-.6 0-1.1-.2-1.5-.6l-5.6-5.6c-.4-.4-.6-.9-.6-1.5s.2-1.1.6-1.5c.8-.8 2.1-.8 2.9 0l5.6 5.6c.4.4.6.9.6 1.5s-.2 1.1-.6 1.5c-.3.4-.9.6-1.4.6zM30 33.1c-.4 0-.8.2-1.1.5-.3.3-.5.7-.5 1.1 0 .4.2.8.5 1.1l5.6 5.6c.6.6 1.6.6 2.2 0 .3-.3.5-.7.5-1.1 0-.4-.2-.8-.5-1.1l-5.6-5.6c-.3-.4-.7-.5-1.1-.5zm40 43.7c-.6 0-1.1-.2-1.5-.6L63 70.6c-.4-.4-.6-.9-.6-1.5s.2-1.1.6-1.5c.4-.4.9-.6 1.5-.6s1.1.2 1.5.6l5.6 5.6c.4.4.6.9.6 1.5s-.2 1.1-.6 1.5c-.5.4-1 .6-1.6.6zm-5.6-9.3c-.4 0-.8.2-1.1.5-.3.3-.5.7-.5 1.1s.2.8.5 1.1l5.6 5.6c.6.6 1.6.6 2.2 0 .3-.3.5-.7.5-1.1s-.2-.8-.5-1.1L65.5 68c-.3-.3-.7-.5-1.1-.5zM30 76.8c-.6 0-1.1-.2-1.5-.6-.4-.4-.6-.9-.6-1.5s.2-1.1.6-1.5l5.6-5.6c.4-.4.9-.6 1.5-.6s1.1.2 1.5.6c.4.4.6.9.6 1.5s-.2 1.1-.6 1.5l-5.6 5.6c-.4.4-1 .6-1.5.6zm5.6-9.3c-.4 0-.8.2-1.1.5l-5.6 5.6c-.3.3-.5.7-.5 1.1 0 .4.2.8.5 1.1.6.6 1.6.6 2.2 0l5.6-5.6c.3-.3.5-.7.5-1.1 0-.4-.2-.8-.5-1.1-.3-.3-.7-.5-1.1-.5zm28.8-25.2c-.6 0-1.1-.2-1.5-.6-.4-.4-.6-.9-.6-1.5s.2-1.1.6-1.5l5.6-5.6c.4-.4.9-.6 1.5-.6s1.1.2 1.5.6c.4.4.6.9.6 1.5s-.2 1.1-.6 1.5l-5.6 5.6c-.4.4-.9.6-1.5.6zm5.6-9.2c-.4 0-.8.2-1.1.5l-5.6 5.6c-.3.3-.5.7-.5 1.1s.2.8.5 1.1c.6.6 1.6.6 2.2 0l5.6-5.6c.3-.3.5-.7.5-1.1 0-.4-.2-.8-.5-1.1-.3-.3-.7-.5-1.1-.5zM50.4 302.3c-15.9 0-28.9-12.9-28.9-28.9 0-15.9 12.9-28.9 28.9-28.9 6.1 0 11.9 1.9 16.8 5.4l1.1.8-1.3-.3c-1.7-.4-3.4-.7-5-.7-10.8 0-19.7 8.8-19.7 19.7 0 10.8 8.8 19.7 19.7 19.7 6.2 0 11.9-2.9 15.7-7.8l.8-1-.4 1.3c-3.5 12.1-14.9 20.7-27.7 20.7zm0-57.3C34.7 245 22 257.7 22 273.4s12.7 28.4 28.4 28.4c12.1 0 23-7.9 26.9-19.3-3.8 4.5-9.3 7-15.3 7-11.1 0-20.1-9-20.1-20.1 0-11.1 9-20.1 20.1-20.1 1.3 0 2.6.1 3.9.4-4.6-3.1-10-4.7-15.5-4.7z"/><path class="st2" d="M74.1 277.1l-6.8-3.1-6.8 3.1.9-7.4-5-5.5 7.3-1.5 3.7-6.5 3.7 6.5 7.3 1.5-5 5.5.7 7.4zm-16.8-12.6l4.6 5-.8 6.8 6.2-2.8 6.2 2.8-.8-6.8 4.6-5-6.7-1.4-3.4-5.9-3.4 5.9-6.5 1.4zm110-99h-34.4c-8 0-14.6-6.5-14.6-14.6 0-7.7 6-14 13.6-14.5.1-9.7 8-17.6 17.8-17.6s17.8 8 17.8 17.8v.1c7.8.1 14.1 6.5 14.1 14.4.1 8-6.4 14.4-14.3 14.4zm-17.5-46.1c-9.5 0-17.3 7.8-17.3 17.3v.2h-.2c-7.5.3-13.4 6.5-13.4 14 0 7.8 6.3 14.1 14.1 14.1h34.4c7.7 0 13.9-6.2 13.9-13.9s-6.2-13.9-13.9-13.9h-.3v-.7c-.1-9.4-7.8-17.1-17.3-17.1z"/><path class="st2" d="M143 209.2l5.6-21.2H135l12.8-23h9.4l-8.8 15.7h17.5L143 209.2zm-7.2-21.6h13.4l-5.2 19.6 20.8-25.9h-17.3l8.8-15.7H148l-12.2 22zm2.1-152.5c-.3 0-.6-.1-.9-.2-.8-.3-1.2-1.1-1.2-2v-8.5c0-.9.5-1.6 1.2-2 .7-.3 1.5-.3 2.1.2.6.4 1 1.1 1 1.8v8.4c0 .7-.4 1.4-1 1.8-.4.3-.8.5-1.2.5zm0-12.3c-.2 0-.5.1-.7.2-.6.2-.9.8-.9 1.5V33c0 .7.4 1.3.9 1.5.6.2 1.2.2 1.7-.1.5-.3.8-.8.8-1.4v-8.4c0-.6-.3-1.1-.8-1.4-.4-.3-.7-.4-1-.4zm-20 32.4h-8.4c-.9 0-1.6-.5-2-1.2-.3-.7-.3-1.5.2-2.1.4-.6 1.1-1 1.8-1h8.4c.9 0 1.6.5 2 1.2.3.7.3 1.5-.2 2.1-.4.6-1 1-1.8 1zm-8.4-3.9c-.6 0-1.1.3-1.4.8-.3.5-.4 1.1-.1 1.7.2.6.8.9 1.5.9h8.4c.6 0 1.1-.3 1.4-.8.3-.5.4-1.1.1-1.7-.2-.6-.9-.9-1.5-.9h-8.4zm14.2-10.6c-.6 0-1.1-.2-1.5-.6l-5.6-5.6c-.4-.4-.6-.9-.6-1.5s.2-1.1.6-1.5c.4-.4.9-.6 1.5-.6s1.1.2 1.5.6l5.6 5.6c.4.4.6.9.6 1.5s-.2 1.1-.6 1.5c-.5.4-1 .6-1.5.6zm-5.6-9.3c-.4 0-.8.2-1.1.5-.3.3-.5.7-.5 1.1 0 .4.2.8.5 1.1l5.6 5.6c.6.6 1.6.6 2.2 0 .3-.3.5-.7.5-1.1 0-.4-.2-.8-.5-1.1l-5.6-5.6c-.3-.3-.7-.5-1.1-.5zm0 43.7c-.6 0-1.1-.2-1.5-.6-.4-.4-.6-.9-.6-1.5s.2-1.1.6-1.5l5.6-5.6c.4-.4.9-.6 1.5-.6s1.1.2 1.5.6c.4.4.6.9.6 1.5s-.2 1.1-.6 1.5l-5.6 5.6c-.5.4-1 .6-1.5.6zm5.6-9.2c-.4 0-.8.2-1.1.5L117 72c-.3.3-.5.7-.5 1.1 0 .4.2.8.5 1.1.6.6 1.6.6 2.2 0l5.6-5.6c.3-.3.5-.7.5-1.1s-.2-.8-.5-1.1c-.3-.4-.7-.5-1.1-.5zm28.8-25.2c-.6 0-1.1-.2-1.5-.6-.4-.4-.6-.9-.6-1.5s.2-1.1.6-1.5l5.6-5.6c.4-.4.9-.6 1.5-.6s1.1.2 1.5.6c.4.4.6.9.6 1.5s-.2 1.1-.6 1.5l-5.6 5.6c-.4.4-1 .6-1.5.6zm5.6-9.3c-.4 0-.8.2-1.1.5l-5.6 5.6c-.3.3-.5.7-.5 1.1 0 .4.2.8.5 1.1.6.6 1.6.6 2.2 0l5.6-5.6c.3-.3.5-.7.5-1.1 0-.4-.2-.8-.5-1.1-.3-.3-.7-.5-1.1-.5zM131.5 66l-.2-.1c-4.9-2.5-7.9-7.5-7.9-13 0-8.1 6.6-14.7 14.7-14.7 4.8 0 9.2 2.3 12 6.2l.1.2-.2.1c-4.1 3.3-6.5 8.2-6.5 13.5v.2h-.2c-4.9.2-9.3 2.9-11.7 7.3l-.1.3zm6.6-27.4c-7.8 0-14.2 6.4-14.2 14.2 0 5.2 2.8 10 7.4 12.5 2.5-4.3 6.8-7 11.7-7.3.1-5.3 2.4-10.2 6.5-13.6-2.6-3.6-6.9-5.8-11.4-5.8zm4.9 19.6z"/><path class="st2" d="M178.2 87.1H144c-6.4 0-12.9-5.1-14.3-11.2-.8-3.6-.3-7.2 1.4-10.4l.4.2c-1.7 3.1-2.2 6.5-1.4 10 1.3 5.9 7.6 10.8 13.8 10.8h34.2c6.6 0 12.3-4.6 13.7-10.8.9-4.2-.1-8.5-2.8-11.8-2.7-3.3-6.6-5.2-10.8-5.2h-.2v-.6c0-9.5-7.8-17.3-17.3-17.3-3.9 0-7.7 1.3-10.8 3.8l-.3-.4c3.2-2.5 7-3.9 11.1-3.9 9.8 0 17.8 8 17.8 17.8v.1c4.3.1 8.3 2 10.9 5.3 2.7 3.4 3.8 7.8 2.9 12.2-1.4 6.7-7.3 11.4-14.1 11.4zM67.3 173.9H32.9c-8 0-14.6-6.5-14.6-14.6 0-7.7 6-14 13.6-14.5.1-9.7 8-17.6 17.8-17.6s17.8 8 17.8 17.8v.1c7.8.1 14.1 6.5 14.1 14.4.1 8-6.4 14.4-14.3 14.4zm-17.5-46.1c-9.5 0-17.3 7.8-17.3 17.3v.2h-.2c-7.5.3-13.4 6.5-13.4 14 0 7.8 6.3 14.1 14.1 14.1h34.4c7.7 0 13.9-6.2 13.9-13.9s-6.2-13.9-13.9-13.9h-.3v-.7c-.1-9.4-7.8-17.1-17.3-17.1zm-8.7 73c-2.5 0-4.4-1.2-5.7-3.4-1.4-2.5-1.4-5.6-.1-8.4l5.8-12.2 5.8 12.2c1.3 2.7 1.3 5.9-.1 8.4-1.2 2.3-3.1 3.4-5.7 3.4zm0-22.8l-5.3 11.3c-1.2 2.6-1.2 5.6.1 7.9 1.1 2.1 2.9 3.2 5.2 3.2s4.1-1.1 5.2-3.2c1.3-2.4 1.3-5.3.1-7.9L41.1 178zm20.2 22.8c-2.5 0-4.4-1.2-5.7-3.4-1.4-2.5-1.4-5.6-.1-8.4l5.8-12.2 5.8 12.2c1.3 2.7 1.3 5.9-.1 8.4-1.3 2.3-3.2 3.4-5.7 3.4zm0-22.8L56 189.2c-1.2 2.6-1.2 5.6.1 7.9 1.1 2.1 2.9 3.2 5.2 3.2s4.1-1.1 5.2-3.2c1.3-2.4 1.3-5.3.1-7.9L61.3 178zm206-100h-34.4c-8 0-14.6-6.5-14.6-14.6 0-7.7 6-14 13.6-14.5.1-9.7 8-17.6 17.8-17.6s17.8 8 17.8 17.8v.1c7.8.1 14.1 6.5 14.1 14.4.1 8-6.4 14.4-14.3 14.4zm-17.5-46.1c-9.5 0-17.3 7.8-17.3 17.3v.2h-.2c-7.5.3-13.4 6.5-13.4 14 0 7.8 6.3 14.1 14.1 14.1h34.4c7.7 0 13.9-6.2 13.9-13.9s-6.2-13.9-13.9-13.9h-.3V49c-.1-9.4-7.8-17.1-17.3-17.1zm188.1-10.1c-.3 0-.6-.1-.9-.2-.8-.3-1.2-1.1-1.2-2v-8.5c0-.9.5-1.6 1.2-2 .7-.3 1.5-.3 2.1.2.6.4 1 1.1 1 1.8v8.4c0 .7-.4 1.4-1 1.8-.4.3-.8.5-1.2.5zm0-12.3c-.2 0-.5.1-.7.2-.6.2-.9.8-.9 1.5v8.5c0 .7.4 1.3.9 1.5.6.2 1.2.2 1.7-.1.5-.3.8-.8.8-1.4v-8.4c0-.6-.3-1.1-.8-1.4-.4-.3-.7-.4-1-.4zm-20 32.3h-8.4c-.9 0-1.6-.5-2-1.2-.3-.7-.3-1.5.2-2.1.4-.6 1.1-1 1.8-1h8.4c.9 0 1.6.5 2 1.2.3.7.3 1.5-.2 2.1-.4.7-1 1-1.8 1zm-8.4-3.8c-.6 0-1.1.3-1.4.8-.3.5-.4 1.1-.1 1.7.2.6.9.9 1.5.9h8.4c.6 0 1.1-.3 1.4-.8.3-.5.4-1.1.1-1.7-.2-.6-.9-.9-1.5-.9h-8.4zm14.2-10.6c-.6 0-1.1-.2-1.5-.6l-5.6-5.6c-.4-.4-.6-.9-.6-1.5s.2-1.1.6-1.5c.8-.8 2.1-.8 2.9 0l5.6 5.6c.4.4.6.9.6 1.5s-.2 1.1-.6 1.5c-.4.4-.9.6-1.4.6zm-5.6-9.3c-.4 0-.8.2-1.1.5-.3.3-.5.7-.5 1.1 0 .4.2.8.5 1.1l5.6 5.6c.6.6 1.6.6 2.2 0 .3-.3.5-.7.5-1.1 0-.4-.2-.8-.5-1.1l-5.6-5.6c-.3-.3-.7-.5-1.1-.5zm0 43.7c-.6 0-1.1-.2-1.5-.6-.4-.4-.6-.9-.6-1.5s.2-1.1.6-1.5l5.6-5.6c.8-.8 2.1-.8 2.9 0 .4.4.6.9.6 1.5s-.2 1.1-.6 1.5l-5.6 5.6c-.4.4-.9.6-1.4.6zm5.6-9.2c-.4 0-.8.2-1.1.5l-5.6 5.6c-.3.3-.5.7-.5 1.1 0 .4.2.8.5 1.1.6.6 1.6.6 2.2 0l5.6-5.6c.3-.3.5-.7.5-1.1 0-.4-.2-.8-.5-1.1-.3-.4-.7-.5-1.1-.5zm28.8-25.2c-.6 0-1.1-.2-1.5-.6-.4-.4-.6-.9-.6-1.5s.2-1.1.6-1.5l5.6-5.6c.4-.4.9-.6 1.5-.6s1.1.2 1.5.6c.4.4.6.9.6 1.5s-.2 1.1-.6 1.5l-5.6 5.6c-.4.4-1 .6-1.5.6zm5.6-9.3c-.4 0-.8.2-1.1.5l-5.6 5.6c-.3.3-.5.7-.5 1.1 0 .4.2.8.5 1.1.6.6 1.6.6 2.2 0l5.6-5.6c.3-.3.5-.7.5-1.1s-.2-.8-.5-1.1c-.3-.3-.7-.5-1.1-.5zm-26.6 34.5l-.2-.1c-4.9-2.5-7.9-7.5-7.9-13 0-8.1 6.6-14.7 14.7-14.7 4.8 0 9.2 2.3 12 6.2l.1.2-.2.1c-4.1 3.3-6.5 8.2-6.5 13.5v.2h-.2c-4.9.2-9.3 2.9-11.7 7.3l-.1.3zm6.6-27.3c-7.8 0-14.2 6.4-14.2 14.2 0 5.2 2.8 10 7.4 12.5 2.5-4.3 6.8-7 11.7-7.3.1-5.3 2.4-10.2 6.5-13.6-2.6-3.6-6.9-5.8-11.4-5.8zm4.9 19.6z"/><path class="st2" d="M478.2 73.8H444c-6.4 0-12.9-5.1-14.3-11.2-.8-3.6-.3-7.2 1.4-10.4l.4.2c-1.7 3.1-2.2 6.5-1.4 10 1.3 5.9 7.6 10.8 13.8 10.8h34.2c6.6 0 12.3-4.6 13.7-10.8.9-4.2-.1-8.5-2.8-11.8-2.7-3.3-6.6-5.2-10.8-5.2h-.2v-.6c0-9.5-7.8-17.3-17.3-17.3-3.9 0-7.7 1.3-10.8 3.8l-.3-.4c3.2-2.5 7-3.9 11.1-3.9 9.8 0 17.8 8 17.8 17.8v.1c4.3.1 8.3 2 10.9 5.3 2.7 3.4 3.8 7.8 2.9 12.2-1.4 6.6-7.3 11.4-14.1 11.4zm-11.6 26.6c-2.5 0-4.4-1.2-5.7-3.4-1.4-2.5-1.4-5.6-.1-8.4l5.8-12.2 5.8 12.2c1.3 2.7 1.3 5.9-.1 8.4-1.2 2.2-3.2 3.4-5.7 3.4zm0-22.9l-5.3 11.3c-1.2 2.6-1.2 5.6.1 7.9 1.1 2.1 2.9 3.2 5.2 3.2 2.3 0 4.1-1.1 5.2-3.2 1.3-2.4 1.3-5.3.1-7.9l-5.3-11.3zM253 145.1h.5v12.5h-.5zm-6.5 0h.5v12.5h-.5zm7-9.3h-.5v-6.7c0-1.1-.9-2-2-2h-2.1c-1.1 0-2 .9-2 2v6.7h-.5v-6.7c0-1.4 1.1-2.5 2.5-2.5h2.1c1.4 0 2.5 1.1 2.5 2.5v6.7zm-2.4 65.6H249c-1.4 0-2.5-1.1-2.5-2.5v-6.7h.5v6.7c0 1.1.9 2 2 2h2.1c1.1 0 2-.9 2-2v-6.7h.5v6.7c-.1 1.4-1.2 2.5-2.5 2.5zm1.9-30.9h.5V183h-.5zm-6.5 0h.5V183h-.5z"/><path class="st2" d="M247 145.3h-.5v-.1l-9.6-9.6c-.5-.5-.7-1.1-.7-1.7 0-.7.3-1.3.7-1.7l1.5-1.5c1-1 2.5-1 3.5 0l5 5h.1v.7l-5.4-5.4c-.8-.8-2-.8-2.8 0l-1.5 1.5c-.4.4-.6.9-.6 1.4 0 .5.2 1 .6 1.4l9.7 9.7v.3zm6.5 0h-.5v-.3l9.7-9.7c.8-.8.8-2 0-2.8l-1.5-1.5c-.4-.4-.9-.6-1.4-.6-.5 0-1 .2-1.4.6l-5.4 5.4v-.7h.1l-.1-.1 5-5c.5-.5 1.1-.7 1.7-.7.7 0 1.3.3 1.7.7l1.5 1.5c1 1 1 2.5 0 3.5l-9.6 9.6v.1zm-13.3 52.9c-.7 0-1.3-.3-1.7-.7L237 196c-1-1-1-2.5 0-3.5l9.6-9.6v-.3h.5v.5l-9.7 9.7c-.8.8-.8 2 0 2.8l1.5 1.5c.4.4.9.6 1.4.6.5 0 1-.2 1.4-.6l5.4-5.4v.9h-.2l-4.8 4.8c-.7.5-1.3.8-1.9.8zm19.6 0c-.6 0-1.3-.2-1.7-.7l-4.7-4.7h-.4v-1.1l5.4 5.4c.8.8 2 .8 2.8 0l1.5-1.5c.4-.4.6-.9.6-1.4 0-.5-.2-1-.6-1.4l-9.7-9.7v-.4h.5v.2l9.6 9.6c.5.5.7 1.1.7 1.7 0 .7-.3 1.3-.7 1.7l-1.5 1.5c-.5.5-1.1.8-1.8.8zm-3.4-31.1h12.5v.5h-12.5zm0-6.6h12.5v.5h-12.5zm-34.6 7.1h-6.7c-1.4 0-2.5-1.1-2.5-2.5V163c0-1.4 1.1-2.5 2.5-2.5h6.7v.5h-6.7c-1.1 0-2 .9-2 2v2.1c0 1.1.9 2 2 2h6.7v.5zm9.3-7.1h12.5v.5h-12.5zm-.1 6.6h12.5v.5H231zm53.9.5h-6.7v-.5h6.7c1.1 0 2-.9 2-2V163c0-1.1-.9-2-2-2h-6.7v-.5h6.7c1.4 0 2.5 1.1 2.5 2.5v2.1c-.1 1.4-1.2 2.5-2.5 2.5z"/><path class="st2" d="M280.1 177.9c-.7 0-1.3-.3-1.7-.7l-9.6-9.6h-.2v-.5h.4l9.7 9.7c.4.4.9.6 1.4.6.5 0 1-.2 1.4-.6l1.5-1.5c.4-.4.6-.9.6-1.4 0-.5-.2-1-.6-1.4l-5.4-5.4h1.2v.5l4.6 4.6c.5.5.7 1.1.7 1.7 0 .7-.3 1.3-.7 1.7l-1.5 1.5c-.5.5-1.1.8-1.8.8zm-1.5-16.9h-1l5.4-5.4c.8-.8.8-2 0-2.8l-1.5-1.5c-.4-.4-.9-.6-1.4-.6-.5 0-1 .2-1.4.6L269 161h-.4v-.5h.2l9.6-9.6c.5-.5 1.1-.7 1.7-.7.7 0 1.3.3 1.7.7l1.5 1.5c1 1 1 2.5 0 3.5l-4.7 4.7v.4zm-58.7 16.9c-.7 0-1.3-.3-1.7-.7l-1.5-1.5c-1-1-1-2.5 0-3.5l4.8-4.8v-.3h.9l-5.4 5.4c-.8.8-.8 2 0 2.8l1.5 1.5c.4.4.9.6 1.4.6.5 0 1-.2 1.4-.6l9.7-9.7h.4v.5h-.2l-9.6 9.6c-.5.4-1.1.7-1.7.7zm11.7-16.9h-.6l-9.7-9.7c-.8-.8-2-.8-2.8 0l-1.5 1.5c-.4.4-.6.9-.6 1.4s.2 1 .6 1.4l5.4 5.4h-1.2v-.5l-4.6-4.6c-.5-.5-.7-1.1-.7-1.7 0-.7.3-1.3.7-1.7l1.5-1.5c1-1 2.5-1 3.5 0l9.6 9.6h.4v.4zm2.2 21.7c-.7 0-1.3-.3-1.7-.7-.5-.5-.7-1.1-.7-1.7 0-.7.3-1.3.7-1.7l2.7-2.7.3.3-2.7 2.7c-.4.4-.6.9-.6 1.4 0 .5.2 1 .6 1.4.4.4.9.6 1.4.6.5 0 1-.2 1.4-.6l2.7-2.7.3.3-2.7 2.7c-.4.4-1 .7-1.7.7zm23-21.7h-1l4.6-4.6.4.4-4 4zm-3.8-2.8v-.9h.3l4-4 .4.3zm-13.4 13.5l-.4-.3 4.2-4.2v-.1h.8zm3.1 3.2l-.4-.4 4.7-4.6v.9h-.3zm22.5-22.6l-.3-.3 2.7-2.7c.4-.4.6-.9.6-1.4s-.2-1-.6-1.4c-.8-.8-2-.8-2.8 0l-2.7 2.7-.3-.3 2.7-2.7c1-1 2.5-1 3.5 0 .5.5.7 1.1.7 1.7s-.3 1.3-.7 1.7l-2.8 2.7z"/><path class="st2" d="M260.5 157l-.3-.3.3-.3h8.6c1.1 0 2-.9 2-2 0-.5-.2-1-.6-1.4-.4-.4-.9-.6-1.4-.6h-4.6l.6-.6.1.1h3.9c.7 0 1.3.3 1.7.7.5.5.7 1.1.7 1.7 0 1.4-1.1 2.5-2.5 2.5h-8.4l-.1.2zm-3-3.2l-.3-.3.1-.1V145c0-.7.3-1.3.7-1.7.5-.5 1.1-.7 1.7-.7 1.4 0 2.5 1.1 2.5 2.5v3.9l.1.1-.6.6V145c0-1.1-.9-2-2-2-.5 0-1 .2-1.4.6-.4.4-.6.9-.6 1.4v8.6l-.2.2zm-22.6 22.5l-.1-.1h-3.9c-.7 0-1.3-.3-1.7-.7s-.7-1.1-.7-1.7c0-1.4 1.1-2.5 2.5-2.5h8.4l.1-.1.3.3-.2.2H231c-1.1 0-2 .9-2 2 0 .5.2 1 .6 1.4.4.4.9.6 1.4.6h4.6l-.7.6zm5.4 9.3c-1.4 0-2.5-1.1-2.5-2.5v-3.6l-.3-.3.7-.7v4.6c0 1.1.9 2 2 2 .5 0 1-.2 1.4-.6.4-.4.6-.9.6-1.4v-8.6l.3-.3.3.3-.2.2v8.4c0 .7-.3 1.3-.7 1.7-.3.6-.9.8-1.6.8zm3.9-24.6h-.9v-.2l-4.1-4.1.3-.3zm2.8-2.8l-4.7-4.6.4-.3 3.9 3.9h.4zm19.2 24.5c-.6 0-1.3-.2-1.7-.7l-2.7-2.7.3-.3 2.7 2.7c.8.8 2 .8 2.8 0 .4-.4.6-.9.6-1.4 0-.5-.2-1-.6-1.4l-2.7-2.7.3-.3 2.7 2.7c.5.5.7 1.1.7 1.7 0 .7-.3 1.3-.7 1.7-.5.4-1.1.7-1.7.7zm-31.4-30.4l-2.7-2.7c-.5-.5-.7-1.1-.7-1.7s.3-1.3.7-1.7c.5-.5 1.1-.7 1.7-.7.7 0 1.3.3 1.7.7l2.7 2.7-.3.3-2.7-2.7c-.7-.7-2-.7-2.8 0-.4.4-.6.9-.6 1.4s.2 1 .6 1.4l2.7 2.7-.3.3zm22.5 22.6l-4-4.1h-.3v-.9l4.7 4.6zm3.2-3.2l-4.7-4.6h.9v.2l4.1 4.1z"/><path class="st2" d="M265.1 176.4l-.6-.6h4.6c1.1 0 2-.9 2-2 0-.5-.2-1-.6-1.4-.4-.4-.9-.6-1.4-.6h-8.6l-.3-.3.3-.3.1.1h8.4c.7 0 1.3.3 1.7.7.5.5.7 1.1.7 1.7 0 1.4-1.1 2.5-2.5 2.5H265l.1.2zm-5.4 9.2c-1.4 0-2.5-1.1-2.5-2.5v-8.5h.1l.2-.2.1.1v8.6c0 1.1.9 2 2 2 .5 0 1-.2 1.4-.6.4-.4.6-.9.6-1.4v-4.6l.7.7-.2.2v3.7c0 .7-.3 1.3-.7 1.7-.4.6-1 .8-1.7.8zM239.5 157l-.2-.2h-8.4c-.7 0-1.3-.3-1.7-.7s-.7-1.1-.7-1.7c0-1.4 1.1-2.5 2.5-2.5h3.8l.2-.2.7.7h-4.6c-1.1 0-2 .9-2 2 0 .5.2 1 .6 1.4.4.4.9.6 1.4.6h8.6l.3.3-.5.3zm2.9-3.3l-.1-.1V145c0-1.1-.9-2-2-2-.5 0-1 .2-1.4.6-.4.4-.6.9-.6 1.4v4.6l-.6-.6.1-.1V145c0-.7.3-1.3.7-1.7.5-.5 1.1-.7 1.7-.7 1.4 0 2.5 1.1 2.5 2.5v8.5h-.1l-.2.1zm137.6 3.4h-15.7v-.5H380c1 0 1.9-.8 1.9-1.9 0-1-.8-1.9-1.9-1.9h-16.6v-.5H380c1.3 0 2.4 1.1 2.4 2.4 0 1.4-1.1 2.4-2.4 2.4zm-50.6 0h-16.8c-1.3 0-2.4-1.1-2.4-2.4 0-1.3 1.1-2.4 2.4-2.4h17.8v.5h-17.8c-1 0-1.9.8-1.9 1.9 0 1 .8 1.9 1.9 1.9h16.8v.5z"/><path class="st2" d="M363.7 152.9H330l.1-.3c2.5-7.1 9.2-11.8 16.7-11.8s14.2 4.7 16.7 11.8l.2.3zm-33-.5H363c-2.5-6.7-9-11.2-16.2-11.2-7.1 0-13.6 4.5-16.1 11.2zm33.7 35H330c-7 0-13-5-14.3-11.8l-.1-.3h56.1c1 0 1.9-.8 1.9-1.9 0-1-.8-1.9-1.9-1.9h-56.3v-.3c.8-7.1 6.5-12.4 13.6-12.9 0-.5 0-.9.1-1.4v-.2h35.3v.2c.1.6.1 1.1.1 1.6v.1c3.2.1 6.2 1.1 8.7 3.1l.5.4h-48c-1 0-1.9.8-1.9 1.9 0 1 .8 1.9 1.9 1.9h51.1l.1.1c1.2 2.1 1.8 4.5 1.8 6.9 0 2.2-.5 4.3-1.4 6.3l-.1.1h-49.1c-1 0-1.9.8-1.9 1.9 0 1 .8 1.9 1.9 1.9h46.3l-.5.4c-2.5 2.5-5.9 3.9-9.5 3.9zm-48.2-11.7c1.4 6.5 7.1 11.2 13.8 11.2h34.4c3.3 0 6.4-1.1 8.9-3.2h-45.1c-1.3 0-2.4-1.1-2.4-2.4 0-1.3 1.1-2.4 2.4-2.4H377c.9-1.9 1.3-3.8 1.3-5.9 0-2.3-.6-4.6-1.7-6.6h-50.8c-1.3 0-2.4-1.1-2.4-2.4 0-1.3 1.1-2.4 2.4-2.4h46.6c-2.4-1.7-5.1-2.6-8-2.6h-.2v-.6c0-.4 0-.9-.1-1.4h-34.5c0 .5-.1.9-.1 1.4v.2h-.2c-6.9.3-12.4 5.4-13.3 12.2h55.7c1.3 0 2.4 1.1 2.4 2.4 0 1.3-1.1 2.4-2.4 2.4h-55.5z"/><path class="st2" d="M393.2 166.4h-16.4v-.4h16.4c1 0 1.9-.8 1.9-1.9 0-1-.8-1.9-1.9-1.9h-20v-.5h20c1.3 0 2.4 1.1 2.4 2.4 0 1.3-1.1 2.3-2.4 2.3zm-77.3 9.3h-11.5c-1.3 0-2.4-1.1-2.4-2.4 0-1.3 1.1-2.4 2.4-2.4h11.4v.5h-11.4c-1 0-1.9.8-1.9 1.9 0 1 .8 1.9 1.9 1.9h11.5v.5zm79.7 8h-21.7v-.5h21.7c1 0 1.9-.8 1.9-1.9 0-1-.8-1.9-1.9-1.9h-18.5v-.5h18.5c1.3 0 2.4 1.1 2.4 2.4 0 1.3-1.1 2.4-2.4 2.4z"/></g></svg>